<?xml version="1.0" standalone="no"?><!DOCTYPE svg PUBLIC "-//W3C//DTD SVG 1.1//EN" "http://www.w3.org/Graphics/SVG/1.1/DTD/svg11.dtd"><svg t="1711702128866" class="icon" viewBox="0 0 1024 1024" version="1.1" xmlns="http://www.w3.org/2000/svg" p-id="1544" xmlns:xlink="http://www.w3.org/1999/xlink" width="200" height="200"><path d="M515.988 808.505a21.542 21.542 0 0 0-21.352 21.731v157.62a21.542 21.542 0 0 0 21.428 21.694 21.618 21.618 0 0 0 21.428-21.693v-157.62a21.656 21.656 0 0 0-21.504-21.732z m-77.217-5.5a21.314 21.314 0 0 0-21.125 21.467v106.003a21.276 21.276 0 0 0 21.125 21.428 21.239 21.239 0 0 0 21.087-21.466V824.472a21.276 21.276 0 0 0-21.087-21.466z m322.75-370.498C765.996 141.047 528.428 8.988 512.499 0.417V0l-0.455 0.19-0.417-0.19v0.417c-15.967 8.571-253.573 140.63-249.06 432.09-48.355 31.555-99.062 87.647-90.984 184.7 8.04 96.976 101.338 161.298 137.064 157.81 35.726-3.49 25.335-30.417 25.335-30.417l12.25-50.252s52.64 80.82 69.518 80.782c15.17-1.251 87.305-0.114 95.915 0h0.834c8.647-0.114 80.744-1.251 95.915 0 16.839 0 69.518-80.782 69.518-80.782l12.212 50.252s-10.354 26.927 25.372 30.416c35.727 3.49 128.986-60.833 137.065-157.81 8.002-97.014-42.667-153.144-91.06-184.699z m-249.477-4.285c-6.789-0.114-95.08-3.376-103.235-107.558 2.959-99.025 96.294-107.786 103.235-108.279 6.978 0.493 100.276 9.254 103.234 108.279-8.154 104.182-96.483 107.444-103.234 107.558z m75.662 380.32a21.239 21.239 0 0 0-21.087 21.353v75.624a21.314 21.314 0 0 0 21.087 21.429 21.239 21.239 0 0 0 21.125-21.429v-75.624a21.239 21.239 0 0 0-21.125-21.352z" p-id="1545"></path></svg>