<?xml version="1.0" standalone="no"?><!DOCTYPE svg PUBLIC "-//W3C//DTD SVG 1.1//EN" "http://www.w3.org/Graphics/SVG/1.1/DTD/svg11.dtd"><svg t="1711015385943" class="icon" viewBox="0 0 1024 1024" version="1.1" xmlns="http://www.w3.org/2000/svg" p-id="11051" xmlns:xlink="http://www.w3.org/1999/xlink" width="250" height="250"><path d="M789.333333 277.333333V128h-85.333333v170.666667a64 64 0 0 0 64 64h170.666667v-85.333334h-149.333334z m-469.333333 21.333334V128h-85.333333v149.333333H85.333333v85.333334h170.666667a64 64 0 0 0 64-64z m618.666667 362.666666h-170.666667a64 64 0 0 0-64 64v170.666667h85.333333v-149.333333h149.333334v-85.333334z m-704 85.333334H85.333333v-85.333334h170.666667a64 64 0 0 1 64 64v170.666667h-85.333333v-149.333333z" p-id="11052" fill="#8a8a8a"></path></svg>