<?xml version="1.0" standalone="no"?><!DOCTYPE svg PUBLIC "-//W3C//DTD SVG 1.1//EN" "http://www.w3.org/Graphics/SVG/1.1/DTD/svg11.dtd"><svg t="1711013207445" class="icon" viewBox="0 0 1024 1024" version="1.1" xmlns="http://www.w3.org/2000/svg" p-id="7093" xmlns:xlink="http://www.w3.org/1999/xlink" width="200" height="200"><path d="M938.65 981.35c-17.05 0-29.85-8.55-38.4-25.6l-59.7-119.5H563.2l-59.75 119.5c-8.5 21.3-34.1 29.85-55.45 17.05-25.6-8.55-34.15-34.15-21.35-51.2l72.55-140.8 145.05-290.15c12.8-21.3 34.15-38.4 59.75-38.4s46.95 12.8 59.75 38.4L908.8 780.8l72.55 140.8c8.5 21.35 0 46.95-17.1 55.45-12.8 4.3-17.05 4.3-25.6 4.3zM605.85 755.2h192l-98.1-192-93.9 192z m-520.5 89.6c-17.1 0-29.9-8.55-38.4-25.6-8.55-21.35 0-46.95 21.3-55.45 93.9-46.95 179.2-110.95 247.5-187.75-46.95-64-85.35-128-110.95-192-8.55-21.35 4.25-46.95 25.6-55.45 21.35-8.55 46.95 4.25 55.45 25.6 21.35 51.2 46.95 102.4 81.1 149.3 59.7-85.3 102.4-179.2 128-281.6H85.35c-25.6 0-42.7-17.05-42.7-42.65 0-25.6 17.1-42.65 42.7-42.65h243.2v-51.2c0-25.6 17.05-42.7 42.65-42.7 25.6 0 42.65 17.1 42.65 42.7v51.2H652.8c25.6 0 42.65 17.05 42.65 42.65 0 25.6-17.05 42.65-42.65 42.65h-68.25c-25.6 128-85.35 247.5-162.15 349.9l25.6 25.6a41.267 41.267 0 0 1 0 59.7 41.267 41.267 0 0 1-59.75 0L371.2 640a885.504 885.504 0 0 1-264.55 200.55c-8.5 0-17.05 4.25-21.3 4.25z" p-id="7094" fill="#707070"></path></svg>