<?xml version="1.0" standalone="no"?><!DOCTYPE svg PUBLIC "-//W3C//DTD SVG 1.1//EN" "http://www.w3.org/Graphics/SVG/1.1/DTD/svg11.dtd"><svg t="1711620802892" class="icon" viewBox="0 0 1024 1024" version="1.1" xmlns="http://www.w3.org/2000/svg" p-id="9435" xmlns:xlink="http://www.w3.org/1999/xlink" width="200" height="200"><path d="M5.052298 508.107107c0 280.15286 227.11643 507.260826 507.277752 507.260827 280.15286 0 507.269289-227.107967 507.269289-507.260827C1019.599339 227.937322 792.482909 0.820893 512.338512 0.820893 232.168727 0.829355 5.052298 227.945785 5.052298 508.098645z" fill="#104E88" p-id="9436"></path><path d="M682.094017 782.158281h58.054876v74.252694h-58.054876z" fill="#094372" p-id="9437"></path><path d="M877.847273 782.158281H544.057124a36.872463 36.872463 0 0 1-36.796298-36.787835V511.813818a36.872463 36.872463 0 0 1 36.796298-36.787835h333.790149a36.872463 36.872463 0 0 1 36.787834 36.787835v233.556628a36.449322 36.449322 0 0 1-36.787834 36.787835z" fill="#FFFFFF" p-id="9438"></path><path d="M877.847273 785.534942H544.057124a40.046017 40.046017 0 0 1-40.164496-40.164496V511.813818a40.046017 40.046017 0 0 1 40.164496-40.164496h333.790149a40.046017 40.046017 0 0 1 40.164496 40.164496v233.556628a40.046017 40.046017 0 0 1-40.164496 40.164496zM544.387174 478.741157a33.275769 33.275769 0 0 0-33.411174 33.411174v233.556628a33.275769 33.275769 0 0 0 33.411174 33.411173h333.798611a33.275769 33.275769 0 0 0 33.411174-33.411173V512.152331a33.275769 33.275769 0 0 0-33.411174-33.411174H544.387174z" fill="#043A66" p-id="9439"></path><path d="M865.694678 749.754182h-309.146447a12.457256 12.457256 0 0 1-12.491107-12.482645V523.289388c0-7.083372 5.737785-12.491107 12.482645-12.491107h309.154909c7.091835 0 12.491107 5.737785 12.491107 12.491107V737.28c0.338512 6.74486-5.399273 12.482645-12.491107 12.482645z" fill="#FDF8F7" p-id="9440"></path><path d="M865.694678 753.130843h-309.484959a15.84238 15.84238 0 0 1-15.867769-15.859306V523.289388c0-8.775934 7.083372-15.859306 15.859306-15.859305h309.493422c8.775934 0 15.867769 7.083372 15.867768 15.859305V737.28c0.338512 8.437421-7.091835 15.859306-15.867768 15.859306z m-309.146447-239.294413c-5.077686 0-9.122909 4.053686-9.122909 9.114446V736.941488c0 5.06076 4.053686 9.114446 9.114447 9.114446h309.493421c5.06076 0 9.114446-4.053686 9.114446-9.114446V522.950876c0-5.06076-4.053686-9.114446-9.114446-9.114446h-309.484959z" fill="#104E88" p-id="9441"></path><path d="M667.91881 687.654083H574.768661V539.487207h93.150149v148.166876z m-82.681653-10.121521h72.890182V549.61719h-72.898645V677.532562zM696.946248 587.412099h146.474314v13.506645H696.946248zM696.946248 626.908033h146.474314v13.498182H696.946248z" fill="#9AC7DB" p-id="9442"></path><path d="M696.946248 674.155901h146.474314v13.498182H696.946248z" fill="#F9AD51" p-id="9443"></path><path d="M695.930711 541.518281h146.482777v13.498182H695.930711z" fill="#9AC7DB" p-id="9444"></path><path d="M875.477686 529.365686H583.553058v-15.529256h281.81157c5.737785 0 10.129983 4.392198 10.129984 10.129983v5.399273z" fill="#FFFFFF" p-id="9445"></path><path d="M556.201256 850.004628a33.131901 33.131901 0 0 0-33.072661 33.064198v19.24443h308.816397a483.59881 483.59881 0 0 0 50.963041-47.594843 32.607207 32.607207 0 0 0-16.874843-4.722248h-309.823471z" fill="#094372" p-id="9446"></path><path d="M512.33005 1015.367934a506.736132 506.736132 0 0 0 223.426644-51.623141c-25.980826-125.224198-137.368331-220.396959-270.344463-220.396958-115.094215 0-214.312198 71.544595-255.492231 172.125091 84.712727 62.777124 189.346909 99.903471 302.41005 99.903471z" fill="#FFFFFF" p-id="9447"></path><path d="M433.355107 659.303669h73.905719v143.783141h-73.905719z" fill="#F9EAE4" p-id="9448"></path><path d="M465.750744 839.536132c57.377851 0 110.702017-17.89038 154.920198-47.924892a273.797289 273.797289 0 0 0-155.258711-48.263405c-57.377851 0-110.693554 17.881917-154.911735 47.924892 44.209719 30.711537 97.872397 48.263405 155.250248 48.263405z" fill="#F9EAE4" p-id="9449"></path><path d="M602.103537 568.853157h-22.612628a9.072132 9.072132 0 0 1-9.114446-9.114446v-48.601918c0-5.06076 4.053686-9.105983 9.114446-9.105983h22.274116c5.06076 0 9.114446 4.045223 9.114446 9.105983v48.601918c0.338512 5.06076-3.715174 9.114446-8.775934 9.114446z" fill="#F8FDFF" p-id="9450"></path><path d="M602.103537 570.537256h-22.612628a10.874711 10.874711 0 0 1-10.798545-10.798545v-48.601918c0-6.076298 5.06076-10.798545 10.798545-10.798545h22.274116c6.076298 0 10.798545 5.06076 10.798545 10.798545v48.601918c0.338512 6.076298-4.722248 10.798545-10.460033 10.798545z m-22.612628-66.822347a7.489587 7.489587 0 0 0-7.421884 7.421884v48.601918c0 4.053686 3.368198 7.430347 7.421884 7.430347h22.274116a7.489587 7.489587 0 0 0 7.430347-7.430347v-48.601918a7.489587 7.489587 0 0 0-7.430347-7.421884h-22.274116z" fill="#1A5068" p-id="9451"></path><path d="M524.144132 702.506314H425.247736c-30.373025 0-55.346777-24.973752-55.346777-55.346777V406.502612c0-30.381488 24.973752-55.346777 55.346777-55.346777h98.896396c30.373025 0 55.346777 24.965289 55.346777 55.346777V647.151074c0 30.381488-24.973752 55.35524-55.346777 55.35524z" fill="#FCECD9" p-id="9452"></path><path d="M607.841322 516.536066h-60.754512a4.468364 4.468364 0 0 1-4.383736-4.383735v-11.137058c0-2.369587 2.031074-4.392198 4.383736-4.392199h60.762975c2.352661 0 4.383736 2.031074 4.383736 4.392199v11.137058c0 2.369587-2.031074 4.383736-4.392199 4.383735z" fill="#8ECAF6" p-id="9453"></path><path d="M576.45276 421.024793s103.957157 2.708099 75.936794-182.593586c0 0 12.82962 36.449322-187.315835 36.449322-83.69719 0-111.370579 50.632992-116.439802 81.344529 0 0-53.315702 28.011901-35.433785 81.336066 2.699636 29.36595-8.775934 56.362314 28.011901 95.519736 0 0-1.35405 47.924893 15.190744 57.716363 16.536331 9.783008 141.752066 15.520793 162.00357-5.746248 11.47557-9.783008 11.47557-25.303802 5.06076-40.833058 9.783008-10.798545 45.563769-48.94043 52.985653-123.193124z" fill="#A2D9FF" p-id="9454"></path><path d="M579.490909 440.937785s106.318281 2.708099 77.629355-168.409917c0 0 13.159669 33.741223-191.708033 33.741223-85.389752 0-114.078678 46.579306-119.139438 75.268231 0 0-54.33124 25.980826-36.11081 75.259769 2.699636 27.334876-9.114446 51.640066 28.350414 88.097851 0 0-1.35405 43.871207 15.520793 52.97719 16.874843 9.122909 145.13719 14.183669 165.718744-5.052297 11.814083-9.114446 11.814083-23.289653 5.06076-37.46486 10.807008-10.798545 46.917818-45.902281 54.678215-114.41719z" fill="#519ECE" p-id="9455"></path><path d="M512.998612 1015.706446c80.328992 0 155.935736-18.558942 223.435107-51.631603-12.82962-63.115636-47.924893-118.800926-96.188298-158.288397-47.594843 38.810446-108.340893 62.438612-174.156165 62.438612a273.306446 273.306446 0 0 1-174.156165-62.438612c-35.433785 29.027438-63.784198 66.822347-81.336066 110.016529 84.374215 62.785587 188.999934 99.911934 302.401587 99.911934z" fill="#77BBEC" p-id="9456"></path><path d="M250.084496 623.531372c0-0.338512 0-0.338512 0 0-12.152595 9.444496-72.560132 47.58638-30.381488 67.499372 34.096661 15.859306 16.544793-49.617455 30.381488-67.499372z m39.825983-66.492298c0.338512 0 0.677025-0.677025 0-0.677024-16.536331-4.383736-83.69719-20.243041-63.454148 15.867768 16.874843 30.711537 37.126347-15.190744 63.454148-15.190744z m395.213223-136.014281c-0.33005 0-0.668562-0.338512-0.330049-0.677024 13.836694-10.121521 70.537521-49.270479 65.138248-8.437422-4.722248 35.103736-40.164496-0.677025-64.799736 9.114446z" fill="#F9F9F9" p-id="9457"></path><path d="M229.155967 212.441917a57.521719 57.521719 0 0 1 25.989289-47.924892 51.978579 51.978579 0 0 0-14.513719-2.022612 57.327074 57.327074 0 0 0-57.377851 57.377851 57.327074 57.327074 0 0 0 57.377851 57.377852 56.328463 56.328463 0 0 0 31.397025-9.452959c-24.982215-6.753322-42.872595-29.027438-42.872595-55.346777zM346.611306 213.457455a3.376661 3.376661 0 1 0 6.753322 0 3.376661 3.376661 0 0 0-6.753322 0zM434.023669 250.583802a3.715174 3.715174 0 1 0 7.430348 0 3.715174 3.715174 0 0 0-7.430348 0zM127.568397 368.707702a3.038149 3.038149 0 1 0 6.076297 0 3.038149 3.038149 0 0 0-6.076297 0zM416.810314 118.953256a4.053686 4.053686 0 1 0 8.098909 0 4.053686 4.053686 0 0 0-8.098909 0z" fill="#FCD381" p-id="9458"></path><path d="M592.328992 528.248595l10.93395-11.484033 2.445752 2.327273-10.942413 11.492496zM594.740893 545.470413l10.93395-11.492496 2.437289 2.327273-10.93395 11.492496z" fill="#104E88" p-id="9459"></path><path d="M551.817521 538.480132c0 17.331835 10.426182 31.388562 23.289653 31.388562 12.863471 0 23.28119-14.048264 23.28119-31.397025 0-17.331835-10.426182-31.380099-23.28119-31.380099-12.863471 0-23.289653 14.048264-23.289653 31.388562z" fill="#FCECD9" p-id="9460"></path></svg>